# xmcd
#
# Track frame offsets:
#	150
#	14187
#	23490
#	34970
#	56880
#	73735
#	89480
#	105155
#	133847
#	147242
#	167959
#	183885
#	204650
#	220122
#
# Disc length: 3158 seconds
#
# Revision: 4
# Processed by: cddbd v1.5.2PL0 Copyright (c) Steve Scherf et al.
# Submitted via: EasyCDDAExtractor 11.1.0.1
#
DISCID=d00c540e
DTITLE=Lil' Ed And The Blues Imperials - Get Wild!
DYEAR=1999
DGENRE=Blues
TTITLE0=Singing Slide
TTITLE1=You Got To Stop
TTITLE2=Standing On The Corner
TTITLE3=Too Late
TTITLE4=Compact Man
TTITLE5=She Don't Love Me
TTITLE6=Nothing I Woudn't Do
TTITLE7=Change My Way Of Living
TTITLE8=Independent Superwoman
TTITLE9=The Monkey And The Rabbit
TTITLE10=The Cannonball
TTITLE11=Once In A Lifetime
TTITLE12=Get Out!
TTITLE13=Pet Cream Man
EXTD=YEAR: 1999
EXTT0=
EXTT1=
EXTT2=
EXTT3=
EXTT4=
EXTT5=
EXTT6=
EXTT7=
EXTT8=
EXTT9=
EXTT10=
EXTT11=
EXTT12=
EXTT13=
PLAYORDER=
